<svg width="30" height="30" viewBox="0 0 30 30" fill="none" xmlns="http://www.w3.org/2000/svg">
<path fill-rule="evenodd" clip-rule="evenodd" d="M15 16.8666C16.031 16.8666 16.8667 16.0309 16.8667 14.9999C16.8667 13.969 16.031 13.1333 15 13.1333C13.9691 13.1333 13.1334 13.969 13.1334 14.9999C13.1334 16.0309 13.9691 16.8666 15 16.8666Z" stroke="#EF4444" stroke-width="1.5" stroke-linecap="square"/>
<path d="M10.7561 7.24861C11.668 3.47421 13.2285 0.999939 15 0.999939C17.8112 0.999939 20.0913 7.26821 20.0913 14.9999C20.0913 22.7317 17.8112 28.9999 15 28.9999C12.5276 28.9999 10.4659 24.1606 10.0057 17.7318" stroke="#EF4444" stroke-width="1.5"/>
<path d="M10.7496 22.7531C7.08909 24.0131 4.16215 24.0374 3.20922 22.5487C1.69349 20.1809 5.74322 14.8814 12.2551 10.7131C18.767 6.54487 25.2751 5.0842 26.7908 7.45207C28.1246 9.53527 25.151 13.8865 19.984 17.7411" stroke="#EF4444" stroke-width="1.5"/>
<path d="M14.9888 9.105C9.48775 6.20607 4.51029 5.41927 3.20922 7.45113C1.69349 9.819 5.74322 15.1185 12.2551 19.2867C18.767 23.455 25.2751 24.9157 26.7908 22.5478C27.8156 20.9471 26.2878 18.0529 23.1826 15.027" stroke="#EF4444" stroke-width="1.5"/>
</svg>
